<svg width="64" height="64" viewBox="0 0 64 64" fill="none" xmlns="http://www.w3.org/2000/svg">
<g clip-path="url(#clip0_16_232)">
<path d="M57.6467 0H6.35333C4.66887 0.00176477 3.0539 0.671699 1.8628 1.8628C0.671699 3.0539 0.00176477 4.66887 0 6.35333L0 57.6467C0.00176477 59.3311 0.671699 60.9461 1.8628 62.1372C3.0539 63.3283 4.66887 63.9982 6.35333 64H57.6467C59.3311 63.9982 60.9461 63.3283 62.1372 62.1372C63.3283 60.9461 63.9982 59.3311 64 57.6467V6.35333C63.9982 4.66887 63.3283 3.0539 62.1372 1.8628C60.9461 0.671699 59.3311 0.00176477 57.6467 0ZM60.63 6.35333V20.21H43.79V3.37H57.6467C58.4366 3.37438 59.1928 3.6901 59.7514 4.24863C60.3099 4.80717 60.6256 5.56345 60.63 6.35333ZM23.58 40.42V23.58H40.42V40.42H23.58ZM40.42 43.79V60.63H23.58V43.79H40.42ZM20.21 40.42H3.37V23.58H20.21V40.42ZM23.58 20.21V3.37H40.42V20.21H23.58ZM43.79 23.58H60.63V40.42H43.79V23.58ZM6.35333 3.37H20.21V20.21H3.37V6.35333C3.37438 5.56345 3.6901 4.80717 4.24863 4.24863C4.80717 3.6901 5.56345 3.37438 6.35333 3.37ZM3.37 57.6467V43.79H20.21V60.63H6.35333C5.56345 60.6256 4.80717 60.3099 4.24863 59.7514C3.6901 59.1928 3.37438 58.4366 3.37 57.6467ZM57.6467 60.63H43.79V43.79H60.63V57.6467C60.6256 58.4366 60.3099 59.1928 59.7514 59.7514C59.1928 60.3099 58.4366 60.6256 57.6467 60.63Z" fill="black"/>
<path d="M40.42 23.58H23.58V40.42H40.42V23.58Z" fill="#DABC45"/>
<path d="M60.63 23.58H43.79V40.42H60.63V23.58Z" fill="#7BB677"/>
<path d="M40.42 43.79H23.58V60.63H40.42V43.79Z" fill="#7BB677"/>
<path d="M3.37 57.6467V43.79H20.21V60.63H6.35333C5.56345 60.6257 4.80717 60.3099 4.24863 59.7514C3.69009 59.1929 3.37437 58.4366 3.37 57.6467Z" fill="#7BB677"/>
<path d="M57.6467 60.63H43.79V43.79H60.63V57.6467C60.6256 58.4366 60.3099 59.1929 59.7514 59.7514C59.1928 60.3099 58.4366 60.6257 57.6467 60.63Z" fill="#7BB677"/>
</g>
<defs>
<clipPath id="clip0_16_232">
<rect width="64" height="64" fill="white"/>
</clipPath>
</defs>
</svg>
